<svg xmlns="http://www.w3.org/2000/svg" viewBox="0 0 103 160"><path fill="#fff" d="M0 0h103v160H0z"/><path d="M4.915 4.757h4.497v22.887H7.14V6.998H3.546zm8.523 11.451a18.07 18.07 0 0 1 .973-6.666 7.774 7.774 0 0 1 2.746-3.57 6.862 6.862 0 0 1 3.967-1.215 7.026 7.026 0 0 1 4.03 1.223 8.166 8.166 0 0 1 2.856 3.666 16.923 16.923 0 0 1 1.05 6.562 16.986 16.986 0 0 1-1.035 6.533 8.132 8.132 0 0 1-2.855 3.667 7.039 7.039 0 0 1-4.045 1.236 6.85 6.85 0 0 1-3.952-1.2 7.804 7.804 0 0 1-2.747-3.577 17.892 17.892 0 0 1-.988-6.659zm2.163.037a17.126 17.126 0 0 0 .692 5.582 5.93 5.93 0 0 0 2.046 2.868 4.695 4.695 0 0 0 5.71.022 5.837 5.837 0 0 0 2.008-2.867 16.291 16.291 0 0 0 .855-5.604 16.025 16.025 0 0 0-.762-5.389 6.294 6.294 0 0 0-2.108-3.069 4.67 4.67 0 0 0-5.703 0 5.975 5.975 0 0 0-2.038 2.86 17.008 17.008 0 0 0-.7 5.597zm8.045 16.65a5.542 5.542 0 0 0-7.813 0l-.53.53-.53-.53A5.525 5.525 0 0 0 6.96 40.71l.53.53 7.813 7.813 8.344-8.343a5.54 5.54 0 0 0 0-7.815zm74.439 122.348h-4.497v-22.887h2.272v20.646h3.594zm-8.523-11.451a18.07 18.07 0 0 1-.973 6.666 7.774 7.774 0 0 1-2.746 3.57 6.862 6.862 0 0 1-3.967 1.215 7.026 7.026 0 0 1-4.03-1.223 8.166 8.166 0 0 1-2.855-3.666 21.084 21.084 0 0 1-.016-13.095 8.132 8.132 0 0 1 2.855-3.667 7.039 7.039 0 0 1 4.045-1.236 6.85 6.85 0 0 1 3.952 1.2 7.804 7.804 0 0 1 2.746 3.577 17.892 17.892 0 0 1 .989 6.659zm-2.163-.037a17.126 17.126 0 0 0-.692-5.583 5.93 5.93 0 0 0-2.046-2.867 4.695 4.695 0 0 0-5.71-.022 5.837 5.837 0 0 0-2.007 2.867 16.291 16.291 0 0 0-.856 5.605 16.025 16.025 0 0 0 .762 5.388 6.294 6.294 0 0 0 2.108 3.07 4.67 4.67 0 0 0 5.703 0 5.975 5.975 0 0 0 2.038-2.86 17.008 17.008 0 0 0 .7-5.598zm-8.045-16.65a5.542 5.542 0 0 0 7.813 0l.53-.53.53.53a5.525 5.525 0 0 0 7.813-7.815l-.53-.53-7.813-7.813-8.343 8.343a5.54 5.54 0 0 0 0 7.815zM41.306 35.121a3.846 3.846 0 0 0-5.421 0l-.368.368-.368-.368a3.834 3.834 0 0 0-5.422 5.423l.368.369 5.422 5.421 5.79-5.79a3.845 3.845 0 0 0 0-5.423zm0 26.517a3.846 3.846 0 0 0-5.421 0l-.368.368-.368-.368a3.834 3.834 0 0 0-5.422 5.423l.368.368 5.422 5.422 5.79-5.79a3.845 3.845 0 0 0 0-5.424zM57.29 48.38a3.846 3.846 0 0 0-5.422 0l-.368.367-.368-.368a3.834 3.834 0 0 0-5.422 5.424l.368.368 5.422 5.421 5.79-5.79a3.845 3.845 0 0 0 0-5.423zm-11.58 63.323a3.846 3.846 0 0 0 5.422 0l.368-.368.368.368a3.834 3.834 0 0 0 5.422-5.423l-.368-.368-5.422-5.422-5.79 5.79a3.845 3.845 0 0 0 0 5.423zm-15.983 13.176a3.846 3.846 0 0 0 5.422 0l.368-.368.368.368a3.834 3.834 0 1 0 5.422-5.423l-.368-.368-5.422-5.422-5.79 5.79a3.845 3.845 0 0 0 0 5.423zm0-26.352a3.846 3.846 0 0 0 5.422 0l.368-.368.368.368a3.834 3.834 0 0 0 5.422-5.423l-.368-.368-5.422-5.422-5.79 5.79a3.845 3.845 0 0 0 0 5.423zm43.546-63.406a3.846 3.846 0 0 0-5.422 0l-.368.368-.368-.368a3.834 3.834 0 1 0-5.422 5.423l.369.369 5.421 5.421 5.79-5.79a3.845 3.845 0 0 0 0-5.423zm-11.579 89.758a3.846 3.846 0 0 0 5.421 0l.368-.368.368.368a3.834 3.834 0 1 0 5.422-5.423l-.368-.368-5.422-5.422-5.79 5.79a3.845 3.845 0 0 0 0 5.423zm11.579-63.241a3.846 3.846 0 0 0-5.422 0l-.368.368-.368-.368a3.834 3.834 0 0 0-5.422 5.423l.369.368 5.421 5.422 5.79-5.79a3.845 3.845 0 0 0 0-5.424zM61.694 98.527a3.846 3.846 0 0 0 5.421 0l.368-.368.368.368a3.834 3.834 0 0 0 5.422-5.423l-.368-.368-5.422-5.422-5.79 5.79a3.845 3.845 0 0 0 0 5.423z" fill="#d90000"/></svg>